<?xml version="1.0" encoding="UTF-8"?> <svg xmlns="http://www.w3.org/2000/svg" width="68" height="68.518" viewBox="0 0 68 68.518"><g id="Group_89" data-name="Group 89" transform="translate(-14399.234 -1331)"><g id="Layer_44" data-name="Layer 44" transform="translate(14399.234 1331)"><path id="Path_1076" data-name="Path 1076" d="M69.886,61.1l-7.25-14.488A1.105,1.105,0,0,0,61.652,46H51.706a1.105,1.105,0,0,0,0,2.21h9.272l6.94,13.869a1.072,1.072,0,0,1-.939,1.625H5.556a1.072,1.072,0,0,1-.939-1.625L11.5,48.21h9.261a1.105,1.105,0,0,0,0-2.21H10.816a1.105,1.105,0,0,0-.984.608L2.583,61.1a3.315,3.315,0,0,0,2.973,4.8H66.913a3.315,3.315,0,0,0,2.973-4.8Z" transform="translate(-2.234 2.626)"></path><path id="Path_1077" data-name="Path 1077" d="M25.156,60.572a1.105,1.105,0,0,0,0,2.21H45.049a1.105,1.105,0,0,0,0-2.21H37.755C42.993,55.046,57.205,38.9,57.205,24.1A22.1,22.1,0,1,0,13,24.1c0,14.8,14.212,31,19.45,36.469ZM35.1,4.21A19.892,19.892,0,0,1,54.995,24.1c0,14.941-16.157,32.215-19.892,36.016C31.367,56.328,15.21,39.055,15.21,24.1A19.892,19.892,0,0,1,35.1,4.21Z" transform="translate(-1.102 -2)"></path><path id="Path_1078" data-name="Path 1078" d="M20.946,56.526a1.105,1.105,0,0,0,.785-1.89L18.415,51.32a1.105,1.105,0,0,0-.785-.32H12.105a1.105,1.105,0,0,0,0,2.21h5.073l2.984,2.995A1.105,1.105,0,0,0,20.946,56.526Z" transform="translate(-1.313 3.151)"></path><path id="Path_1079" data-name="Path 1079" d="M53.947,51H48.421a1.105,1.105,0,0,0-.785.32l-3.315,3.315a1.11,1.11,0,1,0,1.569,1.569l2.984-2.995h5.073a1.105,1.105,0,1,0,0-2.21Z" transform="translate(2.156 3.151)"></path><path id="Path_1080" data-name="Path 1080" d="M10.105,58a1.105,1.105,0,1,0,0,2.21h8.841a1.105,1.105,0,1,0,0-2.21Z" transform="translate(-1.523 3.887)"></path><path id="Path_1081" data-name="Path 1081" d="M47,59.105a1.105,1.105,0,0,0,1.105,1.105h8.841a1.105,1.105,0,1,0,0-2.21H48.105A1.105,1.105,0,0,0,47,59.105Z" transform="translate(2.472 3.887)"></path><path id="Path_1082" data-name="Path 1082" d="M46.313,23.156A12.156,12.156,0,1,0,34.156,35.313,12.156,12.156,0,0,0,46.313,23.156Zm-22.1,0A9.946,9.946,0,1,1,34.156,33.1,9.946,9.946,0,0,1,24.21,23.156Z" transform="translate(-0.156 -1.054)"></path></g></g></svg> 