<?xml version="1.0" encoding="UTF-8"?> <svg xmlns="http://www.w3.org/2000/svg" width="60.543" height="60.546" viewBox="0 0 60.543 60.546"><g id="Group_88" data-name="Group 88" transform="translate(-14453 -662)"><path id="Path_1072" data-name="Path 1072" d="M30.115,17.037C29.7,13.768,22.743,5.292,19.628,5.032a9.057,9.057,0,0,0-5,1.148c-2.938,1.548-6.511,4.141-7.871,6.444-4.97,8.412.878,23.606,14.221,36.948,10.162,10.162,21.4,15.977,29.892,15.976a13.711,13.711,0,0,0,7.057-1.755c2.3-1.361,4.9-4.934,6.444-7.872a9.067,9.067,0,0,0,1.147-5c-.26-3.116-8.736-10.073-12.006-10.487-.784-.1-3.17-.4-10.3,5.875a.51.51,0,0,1-.651.013,113.255,113.255,0,0,1-9.648-8.691,113.1,113.1,0,0,1-8.691-9.647.507.507,0,0,1,.012-.65C30.516,20.206,30.214,17.821,30.115,17.037ZM21.589,30.069a116.414,116.414,0,0,0,8.951,9.939,116.471,116.471,0,0,0,9.94,8.951,3.869,3.869,0,0,0,4.955-.126c4.884-4.3,7.2-5.108,7.653-5.065,1.856.235,8.5,5.724,9.083,7.49a5.838,5.838,0,0,1-.777,3.1c-1.495,2.837-3.77,5.711-5.18,6.545-5.838,3.45-19.34-.181-32.864-13.7S6.2,20.172,9.649,14.333c.833-1.41,3.708-3.685,6.544-5.18A6.076,6.076,0,0,1,19,8.367c.1,0,.195,0,.291.01,1.765.581,7.254,7.227,7.489,9.082.05.473-.764,2.77-5.064,7.654A3.867,3.867,0,0,0,21.589,30.069Z" transform="translate(14448 656.994)" fill="#242424"></path><path id="Path_1073" data-name="Path 1073" d="M79.444,33.515c.035,0,.07,0,.105,0a1.68,1.68,0,0,0,1.574-1.781A28.578,28.578,0,0,0,54.4,5a1.68,1.68,0,1,0-.207,3.354,25.213,25.213,0,0,1,23.58,23.579A1.681,1.681,0,0,0,79.444,33.515Z" transform="translate(14432.417 656.999)" fill="#242424"></path><path id="Path_1074" data-name="Path 1074" d="M54.442,17.039a1.681,1.681,0,1,0-.3,3.348A17.1,17.1,0,0,1,69.678,35.921a1.68,1.68,0,0,0,1.672,1.532c.05,0,.1,0,.15-.007a1.68,1.68,0,0,0,1.526-1.822A20.459,20.459,0,0,0,54.442,17.039Z" transform="translate(14432.417 653.061)" fill="#242424"></path><path id="Path_1075" data-name="Path 1075" d="M54.03,32.443a9.049,9.049,0,0,1,7.543,7.543,1.681,1.681,0,1,0,3.32-.525A12.4,12.4,0,0,0,54.555,29.124a1.68,1.68,0,0,0-.525,3.32Z" transform="translate(14432.417 649.11)" fill="#242424"></path></g></svg> 