<?xml version="1.0" encoding="UTF-8"?> <svg xmlns="http://www.w3.org/2000/svg" width="66.812" height="62.426" viewBox="0 0 66.812 62.426"><g id="Group_90" data-name="Group 90" transform="translate(-1079.129 -1416)"><path id="Path_1083" data-name="Path 1083" d="M43.341,46.936H25.4v3.188l20.038-.086a1.583,1.583,0,0,0,1.081-1.512v-19.7h-3.18V46.936Z" transform="translate(1067.508 1401.494)" fill="#242424"></path><path id="Path_1084" data-name="Path 1084" d="M69.663,35.623l5.029,7.9a1.588,1.588,0,0,1-1.34,2.436v.008H69.788c-3.141,25.568-34.334,36.6-52.577,18.181C-2.247,44.506,11.657,10.878,39.089,10.878a30.836,30.836,0,0,1,23.7,11.155,1.585,1.585,0,0,1-2.436,2.029,27.6,27.6,0,0,0-40.89-1.8C2.037,39.845,14.406,70.114,39.089,70.114a27.848,27.848,0,0,0,27.5-24.15c-2.256,0-5.013.509-5.013-1.59,0-.956,4.191-7.042,4.959-8.249v-.008C67.673,34.323,69.013,34.393,69.663,35.623Z" transform="translate(1071 1405.122)" fill="#242424"></path></g></svg> 